<svg xmlns="http://www.w3.org/2000/svg" width="201" height="201" viewBox="0 0 201 201"><g id="Group_1168" data-name="Group 1168" transform="translate(-384 -1392)"><rect id="Rectangle_2206" width="12" height="2" fill="#282f49" data-name="Rectangle 2206" rx="1" transform="translate(391 1392) rotate(90)"/><rect id="Rectangle_2271" width="12" height="2" fill="#282f49" data-name="Rectangle 2271" rx="1" transform="translate(391 1500) rotate(90)"/><rect id="Rectangle_2238" width="12" height="2" fill="#282f49" data-name="Rectangle 2238" rx="1" transform="translate(391 1446) rotate(90)"/><rect id="Rectangle_2278" width="12" height="2" fill="#282f49" data-name="Rectangle 2278" rx="1" transform="translate(391 1554) rotate(90)"/><rect id="Rectangle_2222" width="12" height="2" fill="#282f49" data-name="Rectangle 2222" rx="1" transform="translate(391 1419) rotate(90)"/><rect id="Rectangle_2272" width="12" height="2" fill="#282f49" data-name="Rectangle 2272" rx="1" transform="translate(391 1527) rotate(90)"/><rect id="Rectangle_2241" width="12" height="2" fill="#282f49" data-name="Rectangle 2241" rx="1" transform="translate(391 1473) rotate(90)"/><rect id="Rectangle_2288" width="12" height="2" fill="#282f49" data-name="Rectangle 2288" rx="1" transform="translate(391 1581) rotate(90)"/><rect id="Rectangle_2214" width="12" height="2" fill="#282f49" data-name="Rectangle 2214" rx="1" transform="translate(499 1392) rotate(90)"/><rect id="Rectangle_2289" width="12" height="2" fill="#282f49" data-name="Rectangle 2289" rx="1" transform="translate(499 1500) rotate(90)"/><rect id="Rectangle_2256" width="12" height="2" fill="#282f49" data-name="Rectangle 2256" rx="1" transform="translate(499 1446) rotate(90)"/><rect id="Rectangle_2290" width="12" height="2" fill="#282f49" data-name="Rectangle 2290" rx="1" transform="translate(499 1554) rotate(90)"/><rect id="Rectangle_2231" width="12" height="2" fill="#282f49" data-name="Rectangle 2231" rx="1" transform="translate(499 1419) rotate(90)"/><rect id="Rectangle_2291" width="12" height="2" fill="#282f49" data-name="Rectangle 2291" rx="1" transform="translate(499 1527) rotate(90)"/><rect id="Rectangle_2257" width="12" height="2" fill="#282f49" data-name="Rectangle 2257" rx="1" transform="translate(499 1473) rotate(90)"/><rect id="Rectangle_2292" width="12" height="2" fill="#282f49" data-name="Rectangle 2292" rx="1" transform="translate(499 1581) rotate(90)"/><rect id="Rectangle_2210" width="12" height="2" fill="#282f49" data-name="Rectangle 2210" rx="1" transform="translate(445 1392) rotate(90)"/><rect id="Rectangle_2279" width="12" height="2" fill="#282f49" data-name="Rectangle 2279" rx="1" transform="translate(445 1500) rotate(90)"/><rect id="Rectangle_2248" width="12" height="2" fill="#282f49" data-name="Rectangle 2248" rx="1" transform="translate(445 1446) rotate(90)"/><rect id="Rectangle_2280" width="12" height="2" fill="#282f49" data-name="Rectangle 2280" rx="1" transform="translate(445 1554) rotate(90)"/><rect id="Rectangle_2226" width="12" height="2" fill="#282f49" data-name="Rectangle 2226" rx="1" transform="translate(445 1419) rotate(90)"/><rect id="Rectangle_2281" width="12" height="2" fill="#282f49" data-name="Rectangle 2281" rx="1" transform="translate(445 1527) rotate(90)"/><rect id="Rectangle_2249" width="12" height="2" fill="#282f49" data-name="Rectangle 2249" rx="1" transform="translate(445 1473) rotate(90)"/><rect id="Rectangle_2293" width="12" height="2" fill="#282f49" data-name="Rectangle 2293" rx="1" transform="translate(445 1581) rotate(90)"/><rect id="Rectangle_2219" width="12" height="2" fill="#282f49" data-name="Rectangle 2219" rx="1" transform="translate(553 1392) rotate(90)"/><rect id="Rectangle_2310" width="12" height="2" fill="#282f49" data-name="Rectangle 2310" rx="1" transform="translate(553 1500) rotate(90)"/><rect id="Rectangle_2262" width="12" height="2" fill="#282f49" data-name="Rectangle 2262" rx="1" transform="translate(553 1446) rotate(90)"/><rect id="Rectangle_2311" width="12" height="2" fill="#282f49" data-name="Rectangle 2311" rx="1" transform="translate(553 1554) rotate(90)"/><rect id="Rectangle_2232" width="12" height="2" fill="#282f49" data-name="Rectangle 2232" rx="1" transform="translate(553 1419) rotate(90)"/><rect id="Rectangle_2312" width="12" height="2" fill="#282f49" data-name="Rectangle 2312" rx="1" transform="translate(553 1527) rotate(90)"/><rect id="Rectangle_2263" width="12" height="2" fill="#282f49" data-name="Rectangle 2263" rx="1" transform="translate(553 1473) rotate(90)"/><rect id="Rectangle_2313" width="12" height="2" fill="#282f49" data-name="Rectangle 2313" rx="1" transform="translate(553 1581) rotate(90)"/><rect id="Rectangle_2209" width="12" height="2" fill="#282f49" data-name="Rectangle 2209" rx="1" transform="translate(418 1392) rotate(90)"/><rect id="Rectangle_2273" width="12" height="2" fill="#282f49" data-name="Rectangle 2273" rx="1" transform="translate(418 1500) rotate(90)"/><rect id="Rectangle_2242" width="12" height="2" fill="#282f49" data-name="Rectangle 2242" rx="1" transform="translate(418 1446) rotate(90)"/><rect id="Rectangle_2282" width="12" height="2" fill="#282f49" data-name="Rectangle 2282" rx="1" transform="translate(418 1554) rotate(90)"/><rect id="Rectangle_2223" width="12" height="2" fill="#282f49" data-name="Rectangle 2223" rx="1" transform="translate(418 1419) rotate(90)"/><rect id="Rectangle_2274" width="12" height="2" fill="#282f49" data-name="Rectangle 2274" rx="1" transform="translate(418 1527) rotate(90)"/><rect id="Rectangle_2243" width="12" height="2" fill="#282f49" data-name="Rectangle 2243" rx="1" transform="translate(418 1473) rotate(90)"/><rect id="Rectangle_2294" width="12" height="2" fill="#282f49" data-name="Rectangle 2294" rx="1" transform="translate(418 1581) rotate(90)"/><rect id="Rectangle_2217" width="12" height="2" fill="#282f49" data-name="Rectangle 2217" rx="1" transform="translate(526 1392) rotate(90)"/><rect id="Rectangle_2314" width="12" height="2" fill="#282f49" data-name="Rectangle 2314" rx="1" transform="translate(526 1500) rotate(90)"/><rect id="Rectangle_2258" width="12" height="2" fill="#282f49" data-name="Rectangle 2258" rx="1" transform="translate(526 1446) rotate(90)"/><rect id="Rectangle_2315" width="12" height="2" fill="#282f49" data-name="Rectangle 2315" rx="1" transform="translate(526 1554) rotate(90)"/><rect id="Rectangle_2233" width="12" height="2" fill="#282f49" data-name="Rectangle 2233" rx="1" transform="translate(526 1419) rotate(90)"/><rect id="Rectangle_2316" width="12" height="2" fill="#282f49" data-name="Rectangle 2316" rx="1" transform="translate(526 1527) rotate(90)"/><rect id="Rectangle_2259" width="12" height="2" fill="#282f49" data-name="Rectangle 2259" rx="1" transform="translate(526 1473) rotate(90)"/><rect id="Rectangle_2317" width="12" height="2" fill="#282f49" data-name="Rectangle 2317" rx="1" transform="translate(526 1581) rotate(90)"/><rect id="Rectangle_2211" width="12" height="2" fill="#282f49" data-name="Rectangle 2211" rx="1" transform="translate(472 1392) rotate(90)"/><rect id="Rectangle_2295" width="12" height="2" fill="#282f49" data-name="Rectangle 2295" rx="1" transform="translate(472 1500) rotate(90)"/><rect id="Rectangle_2250" width="12" height="2" fill="#282f49" data-name="Rectangle 2250" rx="1" transform="translate(472 1446) rotate(90)"/><rect id="Rectangle_2296" width="12" height="2" fill="#282f49" data-name="Rectangle 2296" rx="1" transform="translate(472 1554) rotate(90)"/><rect id="Rectangle_2227" width="12" height="2" fill="#282f49" data-name="Rectangle 2227" rx="1" transform="translate(472 1419) rotate(90)"/><rect id="Rectangle_2297" width="12" height="2" fill="#282f49" data-name="Rectangle 2297" rx="1" transform="translate(472 1527) rotate(90)"/><rect id="Rectangle_2251" width="12" height="2" fill="#282f49" data-name="Rectangle 2251" rx="1" transform="translate(472 1473) rotate(90)"/><rect id="Rectangle_2298" width="12" height="2" fill="#282f49" data-name="Rectangle 2298" rx="1" transform="translate(472 1581) rotate(90)"/><rect id="Rectangle_2221" width="12" height="2" fill="#282f49" data-name="Rectangle 2221" rx="1" transform="translate(580 1392) rotate(90)"/><rect id="Rectangle_2318" width="12" height="2" fill="#282f49" data-name="Rectangle 2318" rx="1" transform="translate(580 1500) rotate(90)"/><rect id="Rectangle_2264" width="12" height="2" fill="#282f49" data-name="Rectangle 2264" rx="1" transform="translate(580 1446) rotate(90)"/><rect id="Rectangle_2319" width="12" height="2" fill="#282f49" data-name="Rectangle 2319" rx="1" transform="translate(580 1554) rotate(90)"/><rect id="Rectangle_2236" width="12" height="2" fill="#282f49" data-name="Rectangle 2236" rx="1" transform="translate(580 1419) rotate(90)"/><rect id="Rectangle_2320" width="12" height="2" fill="#282f49" data-name="Rectangle 2320" rx="1" transform="translate(580 1527) rotate(90)"/><rect id="Rectangle_2265" width="12" height="2" fill="#282f49" data-name="Rectangle 2265" rx="1" transform="translate(580 1473) rotate(90)"/><rect id="Rectangle_2321" width="12" height="2" fill="#282f49" data-name="Rectangle 2321" rx="1" transform="translate(580 1581) rotate(90)"/><rect id="Rectangle_2207" width="12" height="2" fill="#282f49" data-name="Rectangle 2207" rx="1" transform="translate(396 1399) rotate(-180)"/><rect id="Rectangle_2270" width="12" height="2" fill="#282f49" data-name="Rectangle 2270" rx="1" transform="translate(396 1507) rotate(-180)"/><rect id="Rectangle_2239" width="12" height="2" fill="#282f49" data-name="Rectangle 2239" rx="1" transform="translate(396 1453) rotate(-180)"/><rect id="Rectangle_2283" width="12" height="2" fill="#282f49" data-name="Rectangle 2283" rx="1" transform="translate(396 1561) rotate(-180)"/><rect id="Rectangle_2224" width="12" height="2" fill="#282f49" data-name="Rectangle 2224" rx="1" transform="translate(396 1426) rotate(-180)"/><rect id="Rectangle_2275" width="12" height="2" fill="#282f49" data-name="Rectangle 2275" rx="1" transform="translate(396 1534) rotate(-180)"/><rect id="Rectangle_2244" width="12" height="2" fill="#282f49" data-name="Rectangle 2244" rx="1" transform="translate(396 1480) rotate(-180)"/><rect id="Rectangle_2299" width="12" height="2" fill="#282f49" data-name="Rectangle 2299" rx="1" transform="translate(396 1588) rotate(-180)"/><rect id="Rectangle_2215" width="12" height="2" fill="#282f49" data-name="Rectangle 2215" rx="1" transform="translate(504 1399) rotate(-180)"/><rect id="Rectangle_2300" width="12" height="2" fill="#282f49" data-name="Rectangle 2300" rx="1" transform="translate(504 1507) rotate(-180)"/><rect id="Rectangle_2252" width="12" height="2" fill="#282f49" data-name="Rectangle 2252" rx="1" transform="translate(504 1453) rotate(-180)"/><rect id="Rectangle_2301" width="12" height="2" fill="#282f49" data-name="Rectangle 2301" rx="1" transform="translate(504 1561) rotate(-180)"/><rect id="Rectangle_2228" width="12" height="2" fill="#282f49" data-name="Rectangle 2228" rx="1" transform="translate(504 1426) rotate(-180)"/><rect id="Rectangle_2302" width="12" height="2" fill="#282f49" data-name="Rectangle 2302" rx="1" transform="translate(504 1534) rotate(-180)"/><rect id="Rectangle_2253" width="12" height="2" fill="#282f49" data-name="Rectangle 2253" rx="1" transform="translate(504 1480) rotate(-180)"/><rect id="Rectangle_2303" width="12" height="2" fill="#282f49" data-name="Rectangle 2303" rx="1" transform="translate(504 1588) rotate(-180)"/><rect id="Rectangle_2212" width="12" height="2" fill="#282f49" data-name="Rectangle 2212" rx="1" transform="translate(450 1399) rotate(-180)"/><rect id="Rectangle_2284" width="12" height="2" fill="#282f49" data-name="Rectangle 2284" rx="1" transform="translate(450 1507) rotate(-180)"/><rect id="Rectangle_2245" width="12" height="2" fill="#282f49" data-name="Rectangle 2245" rx="1" transform="translate(450 1453) rotate(-180)"/><rect id="Rectangle_2285" width="12" height="2" fill="#282f49" data-name="Rectangle 2285" rx="1" transform="translate(450 1561) rotate(-180)"/><rect id="Rectangle_2229" width="12" height="2" fill="#282f49" data-name="Rectangle 2229" rx="1" transform="translate(450 1426) rotate(-180)"/><rect id="Rectangle_2286" width="12" height="2" fill="#282f49" data-name="Rectangle 2286" rx="1" transform="translate(450 1534) rotate(-180)"/><rect id="Rectangle_2246" width="12" height="2" fill="#282f49" data-name="Rectangle 2246" rx="1" transform="translate(450 1480) rotate(-180)"/><rect id="Rectangle_2304" width="12" height="2" fill="#282f49" data-name="Rectangle 2304" rx="1" transform="translate(450 1588) rotate(-180)"/><rect id="Rectangle_2218" width="12" height="2" fill="#282f49" data-name="Rectangle 2218" rx="1" transform="translate(558 1399) rotate(-180)"/><rect id="Rectangle_2322" width="12" height="2" fill="#282f49" data-name="Rectangle 2322" rx="1" transform="translate(558 1507) rotate(-180)"/><rect id="Rectangle_2266" width="12" height="2" fill="#282f49" data-name="Rectangle 2266" rx="1" transform="translate(558 1453) rotate(-180)"/><rect id="Rectangle_2323" width="12" height="2" fill="#282f49" data-name="Rectangle 2323" rx="1" transform="translate(558 1561) rotate(-180)"/><rect id="Rectangle_2234" width="12" height="2" fill="#282f49" data-name="Rectangle 2234" rx="1" transform="translate(558 1426) rotate(-180)"/><rect id="Rectangle_2324" width="12" height="2" fill="#282f49" data-name="Rectangle 2324" rx="1" transform="translate(558 1534) rotate(-180)"/><rect id="Rectangle_2267" width="12" height="2" fill="#282f49" data-name="Rectangle 2267" rx="1" transform="translate(558 1480) rotate(-180)"/><rect id="Rectangle_2325" width="12" height="2" fill="#282f49" data-name="Rectangle 2325" rx="1" transform="translate(558 1588) rotate(-180)"/><rect id="Rectangle_2208" width="12" height="2" fill="#282f49" data-name="Rectangle 2208" rx="1" transform="translate(423 1399) rotate(-180)"/><rect id="Rectangle_2276" width="12" height="2" fill="#282f49" data-name="Rectangle 2276" rx="1" transform="translate(423 1507) rotate(-180)"/><rect id="Rectangle_2240" width="12" height="2" fill="#282f49" data-name="Rectangle 2240" rx="1" transform="translate(423 1453) rotate(-180)"/><rect id="Rectangle_2287" width="12" height="2" fill="#282f49" data-name="Rectangle 2287" rx="1" transform="translate(423 1561) rotate(-180)"/><rect id="Rectangle_2225" width="12" height="2" fill="#282f49" data-name="Rectangle 2225" rx="1" transform="translate(423 1426) rotate(-180)"/><rect id="Rectangle_2277" width="12" height="2" fill="#282f49" data-name="Rectangle 2277" rx="1" transform="translate(423 1534) rotate(-180)"/><rect id="Rectangle_2247" width="12" height="2" fill="#282f49" data-name="Rectangle 2247" rx="1" transform="translate(423 1480) rotate(-180)"/><rect id="Rectangle_2305" width="12" height="2" fill="#282f49" data-name="Rectangle 2305" rx="1" transform="translate(423 1588) rotate(-180)"/><rect id="Rectangle_2216" width="12" height="2" fill="#282f49" data-name="Rectangle 2216" rx="1" transform="translate(531 1399) rotate(-180)"/><rect id="Rectangle_2326" width="12" height="2" fill="#282f49" data-name="Rectangle 2326" rx="1" transform="translate(531 1507) rotate(-180)"/><rect id="Rectangle_2260" width="12" height="2" fill="#282f49" data-name="Rectangle 2260" rx="1" transform="translate(531 1453) rotate(-180)"/><rect id="Rectangle_2327" width="12" height="2" fill="#282f49" data-name="Rectangle 2327" rx="1" transform="translate(531 1561) rotate(-180)"/><rect id="Rectangle_2235" width="12" height="2" fill="#282f49" data-name="Rectangle 2235" rx="1" transform="translate(531 1426) rotate(-180)"/><rect id="Rectangle_2328" width="12" height="2" fill="#282f49" data-name="Rectangle 2328" rx="1" transform="translate(531 1534) rotate(-180)"/><rect id="Rectangle_2261" width="12" height="2" fill="#282f49" data-name="Rectangle 2261" rx="1" transform="translate(531 1480) rotate(-180)"/><rect id="Rectangle_2329" width="12" height="2" fill="#282f49" data-name="Rectangle 2329" rx="1" transform="translate(531 1588) rotate(-180)"/><rect id="Rectangle_2213" width="12" height="2" fill="#282f49" data-name="Rectangle 2213" rx="1" transform="translate(477 1399) rotate(-180)"/><rect id="Rectangle_2306" width="12" height="2" fill="#282f49" data-name="Rectangle 2306" rx="1" transform="translate(477 1507) rotate(-180)"/><rect id="Rectangle_2254" width="12" height="2" fill="#282f49" data-name="Rectangle 2254" rx="1" transform="translate(477 1453) rotate(-180)"/><rect id="Rectangle_2307" width="12" height="2" fill="#282f49" data-name="Rectangle 2307" rx="1" transform="translate(477 1561) rotate(-180)"/><rect id="Rectangle_2230" width="12" height="2" fill="#282f49" data-name="Rectangle 2230" rx="1" transform="translate(477 1426) rotate(-180)"/><rect id="Rectangle_2308" width="12" height="2" fill="#282f49" data-name="Rectangle 2308" rx="1" transform="translate(477 1534) rotate(-180)"/><rect id="Rectangle_2255" width="12" height="2" fill="#282f49" data-name="Rectangle 2255" rx="1" transform="translate(477 1480) rotate(-180)"/><rect id="Rectangle_2309" width="12" height="2" fill="#282f49" data-name="Rectangle 2309" rx="1" transform="translate(477 1588) rotate(-180)"/><rect id="Rectangle_2220" width="12" height="2" fill="#282f49" data-name="Rectangle 2220" rx="1" transform="translate(585 1399) rotate(-180)"/><rect id="Rectangle_2330" width="12" height="2" fill="#282f49" data-name="Rectangle 2330" rx="1" transform="translate(585 1507) rotate(-180)"/><rect id="Rectangle_2268" width="12" height="2" fill="#282f49" data-name="Rectangle 2268" rx="1" transform="translate(585 1453) rotate(-180)"/><rect id="Rectangle_2331" width="12" height="2" fill="#282f49" data-name="Rectangle 2331" rx="1" transform="translate(585 1561) rotate(-180)"/><rect id="Rectangle_2237" width="12" height="2" fill="#282f49" data-name="Rectangle 2237" rx="1" transform="translate(585 1426) rotate(-180)"/><rect id="Rectangle_2332" width="12" height="2" fill="#282f49" data-name="Rectangle 2332" rx="1" transform="translate(585 1534) rotate(-180)"/><rect id="Rectangle_2269" width="12" height="2" fill="#282f49" data-name="Rectangle 2269" rx="1" transform="translate(585 1480) rotate(-180)"/><rect id="Rectangle_2333" width="12" height="2" fill="#282f49" data-name="Rectangle 2333" rx="1" transform="translate(585 1588) rotate(-180)"/></g></svg>