<svg xmlns="http://www.w3.org/2000/svg" width="120" height="120" viewBox="0 0 120 120"><g id="Group_1203" data-name="Group 1203" transform="translate(-384 -1392)"><rect id="Rectangle_2206" width="12" height="2" fill="#282f49" data-name="Rectangle 2206" rx="1" transform="translate(391 1392) rotate(90)"/><rect id="Rectangle_2271" width="12" height="2" fill="#282f49" data-name="Rectangle 2271" rx="1" transform="translate(391 1500) rotate(90)"/><rect id="Rectangle_2238" width="12" height="2" fill="#282f49" data-name="Rectangle 2238" rx="1" transform="translate(391 1446) rotate(90)"/><rect id="Rectangle_2222" width="12" height="2" fill="#282f49" data-name="Rectangle 2222" rx="1" transform="translate(391 1419) rotate(90)"/><rect id="Rectangle_2241" width="12" height="2" fill="#282f49" data-name="Rectangle 2241" rx="1" transform="translate(391 1473) rotate(90)"/><rect id="Rectangle_2214" width="12" height="2" fill="#282f49" data-name="Rectangle 2214" rx="1" transform="translate(499 1392) rotate(90)"/><rect id="Rectangle_2289" width="12" height="2" fill="#282f49" data-name="Rectangle 2289" rx="1" transform="translate(499 1500) rotate(90)"/><rect id="Rectangle_2256" width="12" height="2" fill="#282f49" data-name="Rectangle 2256" rx="1" transform="translate(499 1446) rotate(90)"/><rect id="Rectangle_2231" width="12" height="2" fill="#282f49" data-name="Rectangle 2231" rx="1" transform="translate(499 1419) rotate(90)"/><rect id="Rectangle_2257" width="12" height="2" fill="#282f49" data-name="Rectangle 2257" rx="1" transform="translate(499 1473) rotate(90)"/><rect id="Rectangle_2210" width="12" height="2" fill="#282f49" data-name="Rectangle 2210" rx="1" transform="translate(445 1392) rotate(90)"/><rect id="Rectangle_2279" width="12" height="2" fill="#282f49" data-name="Rectangle 2279" rx="1" transform="translate(445 1500) rotate(90)"/><rect id="Rectangle_2248" width="12" height="2" fill="#282f49" data-name="Rectangle 2248" rx="1" transform="translate(445 1446) rotate(90)"/><rect id="Rectangle_2226" width="12" height="2" fill="#282f49" data-name="Rectangle 2226" rx="1" transform="translate(445 1419) rotate(90)"/><rect id="Rectangle_2249" width="12" height="2" fill="#282f49" data-name="Rectangle 2249" rx="1" transform="translate(445 1473) rotate(90)"/><rect id="Rectangle_2209" width="12" height="2" fill="#282f49" data-name="Rectangle 2209" rx="1" transform="translate(418 1392) rotate(90)"/><rect id="Rectangle_2273" width="12" height="2" fill="#282f49" data-name="Rectangle 2273" rx="1" transform="translate(418 1500) rotate(90)"/><rect id="Rectangle_2242" width="12" height="2" fill="#282f49" data-name="Rectangle 2242" rx="1" transform="translate(418 1446) rotate(90)"/><rect id="Rectangle_2223" width="12" height="2" fill="#282f49" data-name="Rectangle 2223" rx="1" transform="translate(418 1419) rotate(90)"/><rect id="Rectangle_2243" width="12" height="2" fill="#282f49" data-name="Rectangle 2243" rx="1" transform="translate(418 1473) rotate(90)"/><rect id="Rectangle_2211" width="12" height="2" fill="#282f49" data-name="Rectangle 2211" rx="1" transform="translate(472 1392) rotate(90)"/><rect id="Rectangle_2295" width="12" height="2" fill="#282f49" data-name="Rectangle 2295" rx="1" transform="translate(472 1500) rotate(90)"/><rect id="Rectangle_2250" width="12" height="2" fill="#282f49" data-name="Rectangle 2250" rx="1" transform="translate(472 1446) rotate(90)"/><rect id="Rectangle_2227" width="12" height="2" fill="#282f49" data-name="Rectangle 2227" rx="1" transform="translate(472 1419) rotate(90)"/><rect id="Rectangle_2251" width="12" height="2" fill="#282f49" data-name="Rectangle 2251" rx="1" transform="translate(472 1473) rotate(90)"/><rect id="Rectangle_2207" width="12" height="2" fill="#282f49" data-name="Rectangle 2207" rx="1" transform="translate(396 1399) rotate(-180)"/><rect id="Rectangle_2270" width="12" height="2" fill="#282f49" data-name="Rectangle 2270" rx="1" transform="translate(396 1507) rotate(-180)"/><rect id="Rectangle_2239" width="12" height="2" fill="#282f49" data-name="Rectangle 2239" rx="1" transform="translate(396 1453) rotate(-180)"/><rect id="Rectangle_2224" width="12" height="2" fill="#282f49" data-name="Rectangle 2224" rx="1" transform="translate(396 1426) rotate(-180)"/><rect id="Rectangle_2244" width="12" height="2" fill="#282f49" data-name="Rectangle 2244" rx="1" transform="translate(396 1480) rotate(-180)"/><rect id="Rectangle_2215" width="12" height="2" fill="#282f49" data-name="Rectangle 2215" rx="1" transform="translate(504 1399) rotate(-180)"/><rect id="Rectangle_2300" width="12" height="2" fill="#282f49" data-name="Rectangle 2300" rx="1" transform="translate(504 1507) rotate(-180)"/><rect id="Rectangle_2252" width="12" height="2" fill="#282f49" data-name="Rectangle 2252" rx="1" transform="translate(504 1453) rotate(-180)"/><rect id="Rectangle_2228" width="12" height="2" fill="#282f49" data-name="Rectangle 2228" rx="1" transform="translate(504 1426) rotate(-180)"/><rect id="Rectangle_2253" width="12" height="2" fill="#282f49" data-name="Rectangle 2253" rx="1" transform="translate(504 1480) rotate(-180)"/><rect id="Rectangle_2212" width="12" height="2" fill="#282f49" data-name="Rectangle 2212" rx="1" transform="translate(450 1399) rotate(-180)"/><rect id="Rectangle_2284" width="12" height="2" fill="#282f49" data-name="Rectangle 2284" rx="1" transform="translate(450 1507) rotate(-180)"/><rect id="Rectangle_2245" width="12" height="2" fill="#282f49" data-name="Rectangle 2245" rx="1" transform="translate(450 1453) rotate(-180)"/><rect id="Rectangle_2229" width="12" height="2" fill="#282f49" data-name="Rectangle 2229" rx="1" transform="translate(450 1426) rotate(-180)"/><rect id="Rectangle_2246" width="12" height="2" fill="#282f49" data-name="Rectangle 2246" rx="1" transform="translate(450 1480) rotate(-180)"/><rect id="Rectangle_2208" width="12" height="2" fill="#282f49" data-name="Rectangle 2208" rx="1" transform="translate(423 1399) rotate(-180)"/><rect id="Rectangle_2276" width="12" height="2" fill="#282f49" data-name="Rectangle 2276" rx="1" transform="translate(423 1507) rotate(-180)"/><rect id="Rectangle_2240" width="12" height="2" fill="#282f49" data-name="Rectangle 2240" rx="1" transform="translate(423 1453) rotate(-180)"/><rect id="Rectangle_2225" width="12" height="2" fill="#282f49" data-name="Rectangle 2225" rx="1" transform="translate(423 1426) rotate(-180)"/><rect id="Rectangle_2247" width="12" height="2" fill="#282f49" data-name="Rectangle 2247" rx="1" transform="translate(423 1480) rotate(-180)"/><rect id="Rectangle_2213" width="12" height="2" fill="#282f49" data-name="Rectangle 2213" rx="1" transform="translate(477 1399) rotate(-180)"/><rect id="Rectangle_2306" width="12" height="2" fill="#282f49" data-name="Rectangle 2306" rx="1" transform="translate(477 1507) rotate(-180)"/><rect id="Rectangle_2254" width="12" height="2" fill="#282f49" data-name="Rectangle 2254" rx="1" transform="translate(477 1453) rotate(-180)"/><rect id="Rectangle_2230" width="12" height="2" fill="#282f49" data-name="Rectangle 2230" rx="1" transform="translate(477 1426) rotate(-180)"/><rect id="Rectangle_2255" width="12" height="2" fill="#282f49" data-name="Rectangle 2255" rx="1" transform="translate(477 1480) rotate(-180)"/></g></svg>